<svg preserveAspectRatio="none slice" width="394" height="53" viewBox="0 0 394 53" fill="none" xmlns="http://www.w3.org/2000/svg">
<path fill-rule="evenodd" clip-rule="evenodd" d="M0 0L16.4167 3.94C32.8333 7.88 65.6667 15.76 98.5 25.61C131.333 35.46 164.167 47.28 197 49.25C229.833 51.22 262.667 43.34 295.5 35.46C328.333 27.58 361.167 19.7 377.583 15.76L394 11.82V52.2H377.583C361.167 52.2 328.333 52.2 295.5 52.2C262.667 52.2 229.833 52.2 197 52.2C164.167 52.2 131.333 52.2 98.5 52.2C65.6667 52.2 32.8333 52.2 16.4167 52.2H0V0Z" fill="#0099FF"/>
</svg>
